<?xml version="1.0" encoding="UTF-8"?>
<svg id="Layer_2" data-name="Layer 2" xmlns="http://www.w3.org/2000/svg" viewBox="0 0 316.58 148.85">
  <defs>
    <style>
      .cls-1 {
        fill: #f5f4dc;
      }

      .cls-1, .cls-2 {
        stroke-width: 0px;
      }

      .cls-2 {
        fill: #242424;
      }
    </style>
  </defs>
  <g id="Layer_1-2" data-name="Layer 1">
    <rect class="cls-2" width="316.58" height="148.85"/>
    <g>
      <path class="cls-1" d="m75.36,100.51c-.2,7.5-6.43,12.53-15.54,12.53-4.76,0-9.78-1.41-14.41-4.15-10.21-5.94-13.03-22.08-12.69-32.78.11-3.62,15.15-14.01-.46-9.7-3.57.98,6.14-6.95,6.44-10.64.6-7.38-11.8,1.99-7.23-3.84,3.09-3.94,15.95-24.5,20.71-22.96,4.34,1.41,6.36,6.34,7.43,10.78,3.11,12.83,2.96,26.43-.43,39.18-.58,2.19-6.06,16.67-3.57,17.72,1.44.61,4.48-4.76,5.61-5.8,1.69-1.54,3.77-2.93,6.15-2.93,1.67,0,3.22.67,4.56,2.01,2.21,2.35,3.48,6.23,3.42,10.59Z"/>
      <path class="cls-1" d="m118.57,101.46c-1.68,2.01-3.89,3.02-6.5,3.02-9.05,0-9.18-14.07-9.18-14.2,0-.47-.34-.87-.8-.94-.54-.07-.94.2-1.07.67-.07.13-3.62,12.53-9.18,17.62-1.67,1.54-3.75,2.41-5.83,2.41-4.35,0-9.38-3.89-9.38-14.67,0-7.3,3.35-16.95,8.71-25.26,5.29-8.17,11.26-13.27,15.61-13.27,9.51,0,18.63,10.05,20.7,22.85,1.61,9.58.4,17.69-3.08,21.78Zm-13.53-29.68c.07-.54-.34-1.01-.87-1.07-.54-.07-1.01.33-1.07.87l-1.34,11.06c-.07.54.33,1.07.87,1.14h.13c.47,0,.87-.4.94-.87l1.34-11.12Z"/>
      <path class="cls-1" d="m161.38,108.63c-1.54.8-3.02,1.21-4.42,1.21-7.44,0-12.8-11.12-15.01-17.96-1.14-3.35-1.81-5.83-1.88-5.9-.2-.47-.74-.74-1.21-.6-.47.13-.8.67-.67,1.21.89.89,1.02,3.38,1.46,4.51.8,2.06,2.13,3.85,2.95,5.94,1.7,4.34,2.15,9.19,1.2,13.76-.35,1.68-.89,3.35-1.9,4.73-2.73,3.75-7.98,4.48-12.62,4.44-6.78-.06-14.29-1.51-18.34-6.95-.66-.89-1.23-1.96-1.11-3.06.14-1.21,1.1-2.2,2.18-2.76s2.3-.79,3.47-1.14c3.93-1.16,7.54-4.02,9.28-7.76,1.92-4.12.62-8.93.67-13.31s-.05-18.13,5.78-19.58c.27-.07.6-.07.94-.07,4.29,0,9.85,5.83,14.54,16.95,2.35,5.7,4.22,10.45,4.29,10.65.2.47.8.67,1.27.47.47-.2.67-.74.54-1.21-1.09-3.82-3.2-7.33-4.32-11.16-1.95-6.66-2.91-13.82-3.66-20.7-.5-4.53-.64-9.6,2.32-13.07,1.33-1.55,3.14-2.6,4.95-3.54,8.3-4.34,18.34-7.25,26.9-3.46.74.33,1.51.75,1.84,1.48.24.52.22,1.13.13,1.7-.5,3.09-2.91,5.52-5.44,7.36s-5.35,3.38-7.37,5.78c-6.23,7.39.48,19.29,1.03,27.83.5,7.69-.05,19.9-7.81,24.2Z"/>
      <path class="cls-1" d="m208.42,99.79c-3.35,5.36-10.05,11.12-18.56,11.12-1.81,0-3.62-.27-5.43-.8-16.28-4.69-15.14-18.36-11.59-38.66,2.01-11.32,12.73-16.48,21.78-16.48,4.96,0,9.04,1.54,10.92,4.15.22.32.42.65.6,1,1.72,3.44,1.14,7.76.18,11.32-.58,2.14-1.39,4.22-2.38,6.19-.46.91-1.05,1.78-1.42,2.73-.41,1.05-1.36,2.79-2.29,3.48-.94.7-1.9,1.19-3.03,1.48-2.22.58-3.85,1.07-6.13.81-1.35-.16-3.2-1.88-3.72-3.24-.56-1.46-.73-3.17-.88-4.72-.17-1.9-.08-3.76-.08-5.65.07-.54-.27-1-.8-1.07-.47-.07-.94.2-1.07.74l-4.76,17.89c-.13.47.13.94.54,1.14.4.2.94.13,1.21-.27,1.41-1.88,3.08-3.48,5.03-4.82,1.74,3.08,4.22,3.75,6.03,3.75h.8c3.35-.33,7.04-3.08,10.05-7.57,3.62.74,6.16,2.55,7.44,5.03,1.41,3.02.47,7.91-2.41,12.46Z"/>
      <path class="cls-1" d="m258.67,106.61c-3.07,3.55-7.76,5.84-12.4,5.84-1.94,0-3.68-.4-5.09-1.21-7.17-4.02-10.05-15.95-10.39-17.29-.07-.2-.07-.33-.07-.33-.07-.4-.47-.74-.94-.74-.07,0-.13,0-.2.07-.54.07-.87.6-.74,1.14v.27c.27,1,2.01,9.92-1.21,14.27-1.07,1.41-2.48,2.21-4.42,2.34-.2.07-.47.07-.67.07-2.08,0-3.89-1.01-5.36-3.02-4.42-5.96-4.96-19.9-1.14-32.36,3.55-11.66,17.02-17.76,28.48-17.76,4.69,0,8.44,1.07,10.65,2.95,3.22,2.68,4.42,7.04,3.22,11.26-1.88,6.83-9.18,11.93-19.5,13.53-1.14.13-1.81.27-1.81.27-.54.13-.87.6-.8,1.14.07.54.54.87,1.07.8.6-.07,1.2-.13,1.8-.2,8.23-.92,15.33-2.46,23.42-4.26,1.56-.35,3.47-.42,4.45.84.98,1.27.41,3.1-.2,4.59-1.88,4.57-3.76,9.14-5.64,13.71-.61,1.48-1.47,2.85-2.53,4.06Zm-24.19-35.9c.07-.54-.33-1-.87-1.07-.54-.07-1,.34-1.07.87l-1.34,11.06c-.07.54.33,1.01.87,1.07h.13c.47,0,.87-.33.94-.8l1.34-11.12Z"/>
      <path class="cls-1" d="m279.44,87.59c5.16,1.54,7.91,7.77,6.16,13.8-1.54,5.09-5.76,8.64-10.25,8.64-.87,0-1.67-.13-2.41-.33-2.48-.74-4.49-2.61-5.63-5.16-1.21-2.61-1.41-5.7-.54-8.64,1.54-5.09,5.76-8.64,10.32-8.64.8,0,1.61.13,2.34.33Z"/>
    </g>
  </g>
</svg>